# xmcd
#
# Track frame offsets:
#	150
#	1579
#	10352
#	28132
#	40810
#	62645
#	97234
#	101015
#
# Disc length: 1632 seconds
#
# Revision: 1
# Processed by: cddbd v1.5.2PL0 Copyright (c) Steve Scherf et al.
# Submitted via: audiograbber 1.83.01
#
DISCID=5d065e08
DTITLE=Garth Brooks - Live USS Enterprise
DYEAR=1900
DGENRE=Country
TTITLE0=Intro
TTITLE1=National Anthem
TTITLE2=Fever
TTITLE3=Papa Loved Mama
TTITLE4=Am I Standing Still (Feat. Jewel)
TTITLE5=Friends In Low Places
TTITLE6=A Thankyou
TTITLE7=When You Come Back To Me
EXTD=
EXTT0=
EXTT1=
EXTT2=
EXTT3=
EXTT4=
EXTT5=
EXTT6=
EXTT7=
PLAYORDER=
